<?xml version="1.0" encoding="UTF-8"?>
<svg id="Capa_2" data-name="Capa 2" xmlns="http://www.w3.org/2000/svg" viewBox="0 0 718.27 459.47">
  <defs>
    <style>
      .cls-1 {
        fill: #fff;
      }
    </style>
  </defs>
  <g id="Capa_1-2" data-name="Capa 1">
    <g>
      <path class="cls-1" d="M0,459.47V136.3C0,96.23,12.15,63.5,36.46,38.1,60.76,12.7,92.29,0,131.04,0c45.98,0,81.34,21.13,106.08,63.39,15.11-22.77,31.31-39.03,48.61-48.77,17.3-9.74,38.64-14.62,64.04-14.62,40.29,0,71.16,12.7,92.62,38.1,21.46,25.4,32.19,61.96,32.19,109.69v311.68h-133.34V167.83c0-14.45-1.15-24.03-3.45-28.74-2.3-4.71-6.95-7.06-13.96-7.06-13.14,0-19.71,11.17-19.71,33.5v293.94h-133.34V167.83c0-14.23-1.2-23.76-3.61-28.57-2.41-4.82-7.12-7.23-14.12-7.23-13.14,0-19.71,11.93-19.71,35.8v291.64H0Z"/>
      <polygon class="cls-1" points="685 109.37 616.58 236.84 718.27 459.47 563.49 459.47 476 230.87 539.56 109.37 685 109.37"/>
    </g>
  </g>
</svg>