<?xml version="1.0" encoding="UTF-8"?>
<svg id="Capa_1" data-name="Capa 1" xmlns="http://www.w3.org/2000/svg" viewBox="0 0 200 200">
  <defs>
    <style>
      .cls-1 {
        fill: #1d1d1b;
      }
    </style>
  </defs>
  <path class="cls-1" d="M7.63,155.45v-84.3c0-10.45,3.17-18.99,9.51-25.62,6.34-6.63,14.56-9.94,24.67-9.94,11.99,0,21.22,5.51,27.67,16.54,3.94-5.94,8.17-10.18,12.68-12.72,4.51-2.54,10.08-3.81,16.71-3.81,10.51,0,18.56,3.31,24.16,9.94,5.6,6.63,8.4,16.16,8.4,28.62v81.31h-34.78v-76.08c0-3.77-.3-6.27-.9-7.5-.6-1.23-1.81-1.84-3.64-1.84-3.43,0-5.14,2.91-5.14,8.74v76.68h-34.78v-76.08c0-3.71-.31-6.2-.94-7.45s-1.86-1.88-3.68-1.88c-3.43,0-5.14,3.11-5.14,9.34v76.08H7.63Z"/>
  <polygon class="cls-1" points="186.32 64.12 168.47 97.38 195 155.45 154.62 155.45 131.8 95.82 148.38 64.12 186.32 64.12"/>
</svg>