<?xml version="1.0" encoding="UTF-8"?>
<svg id="Capa_2" data-name="Capa 2" xmlns="http://www.w3.org/2000/svg" viewBox="0 0 520.47 664.2">
  <defs>
    <style>
      .cls-1 {
        fill: #ff5722;
        fill-rule: evenodd;
      }
    </style>
  </defs>
  <g id="Capa_1-2" data-name="Capa 1">
    <path class="cls-1" d="M0,260.23C0,188.37,29.12,123.31,76.22,76.22,123.31,29.12,188.37,0,260.24,0s136.93,29.12,184.02,76.22c47.09,47.09,76.22,112.15,76.22,184.02,0,58.99-25.98,123.08-63.37,184.28-50.24,82.18-121.46,159.63-177.28,211.91-5.58,5.19-12.62,7.78-19.59,7.78s-14.04-2.59-19.59-7.78c-.23-.19-.42-.42-.62-.62-55.72-52.25-126.58-129.4-176.62-211.26C25.98,383.31,0,319.22,0,260.23h0ZM260.24,115.2c-40.05,0-76.31,16.25-102.55,42.49-26.24,26.24-42.49,62.5-42.49,102.55s16.25,76.31,42.49,102.55c26.24,26.24,62.5,42.49,102.55,42.49s76.31-16.25,102.55-42.49c26.24-26.24,42.49-62.5,42.49-102.55s-16.25-76.31-42.49-102.55c-26.24-26.24-62.5-42.49-102.55-42.49ZM345.17,175.29c-21.73-21.73-51.76-35.19-84.94-35.19s-63.21,13.46-84.94,35.19c-21.73,21.73-35.19,51.76-35.19,84.94s13.46,63.21,35.19,84.94c21.73,21.73,51.76,35.19,84.94,35.19s63.21-13.46,84.94-35.19c21.73-21.73,35.19-51.76,35.19-84.94s-13.46-63.21-35.19-84.94ZM93.83,93.82c-42.58,42.58-68.92,101.42-68.92,166.41,0,53.97,24.45,113.7,59.67,171.34,48.81,79.82,117.96,155.13,172.38,206.14l.68.58c.71.65,1.62.97,2.56.97s1.91-.32,2.63-.97c54.52-51.05,124.02-126.61,173.03-206.75,35.22-57.63,59.67-117.37,59.67-171.34,0-64.99-26.34-123.83-68.92-166.41-42.58-42.58-101.42-68.92-166.41-68.92-64.96.03-123.79,26.37-166.38,68.95h0Z"/>
  </g>
</svg>