<svg xmlns="http://www.w3.org/2000/svg" data-name="Capa 2" viewBox="0 0 634.84 459.71"><path d="M577.7 0H57.14A57.2 57.2 0 0 0 0 57.14v345.44a57.2 57.2 0 0 0 57.14 57.14h520.57a57.2 57.2 0 0 0 57.14-57.14V57.14A57.2 57.2 0 0 0 577.7 0M390.86 229.85 607.91 39.39a35 35 0 0 1 4.93 17.73v345.44a35 35 0 0 1-4.93 17.73zM577.7 21.88c4.93 0 9.52.99 13.79 2.85l-252.4 221.43a32.95 32.95 0 0 1-43.34 0L43.34 24.73a34 34 0 0 1 13.79-2.85zM26.81 420.3a35 35 0 0 1-4.93-17.73V57.13a35 35 0 0 1 4.93-17.73l217.05 190.46zm30.32 17.52c-4.93 0-9.63-.99-13.79-2.85L260.5 244.41l20.8 18.28c10.29 8.98 23.2 13.46 36.12 13.46s25.83-4.49 36.12-13.46l20.8-18.28L591.5 434.97a34 34 0 0 1-13.79 2.85z" data-name="Capa 1" style="fill:#fff"/></svg>