<svg xmlns="http://www.w3.org/2000/svg" id="Capa_1" data-name="Capa 1" viewBox="0 0 200 200"><defs><style>.cls-1{fill:#1d1d1b}</style></defs><path d="M7.63 155.45v-84.3q0-15.675 9.51-25.62c6.34-6.63 14.56-9.94 24.67-9.94 11.99 0 21.22 5.51 27.67 16.54 3.94-5.94 8.17-10.18 12.68-12.72q6.765-3.81 16.71-3.81c10.51 0 18.56 3.31 24.16 9.94s8.4 16.16 8.4 28.62v81.31H96.65V79.39q0-5.655-.9-7.5c-.6-1.23-1.81-1.84-3.64-1.84-3.43 0-5.14 2.91-5.14 8.74v76.68H52.19V79.39c0-3.71-.31-6.2-.94-7.45s-1.86-1.88-3.68-1.88c-3.43 0-5.14 3.11-5.14 9.34v76.08H7.63ZM186.32 64.12l-17.85 33.26L195 155.45h-40.38L131.8 95.82l16.58-31.7z" class="cls-1"/></svg>