<svg xmlns="http://www.w3.org/2000/svg" id="Capa_2" data-name="Capa 2" viewBox="0 0 718.27 459.47"><defs><style>.cls-1{fill:#ff5722}</style></defs><g id="Capa_1-2" data-name="Capa 1"><path d="M0 459.47V136.3c0-40.07 12.15-72.8 36.46-98.2C60.76 12.7 92.29 0 131.04 0q68.97 0 106.08 63.39c15.11-22.77 31.31-39.03 48.61-48.77S324.37 0 349.77 0c40.29 0 71.16 12.7 92.62 38.1s32.19 61.96 32.19 109.69v311.68H341.24V167.83q0-21.675-3.45-28.74c-2.3-4.71-6.95-7.06-13.96-7.06-13.14 0-19.71 11.17-19.71 33.5v293.94H170.78V167.83c0-14.23-1.2-23.76-3.61-28.57-2.41-4.82-7.12-7.23-14.12-7.23-13.14 0-19.71 11.93-19.71 35.8v291.64zM685 109.37l-68.42 127.47 101.69 222.63H563.49L476 230.87l63.56-121.5z" class="cls-1"/></g></svg>