<svg xmlns="http://www.w3.org/2000/svg" id="Capa_2" data-name="Capa 2" viewBox="0 0 749.32 563.94"><defs><style>.cls-2,.cls-5{fill:#fff}.cls-5{font-family:ArchivoRoman-Thin,Archivo;font-variation-settings:&quot;wght&quot;100,&quot;wdth&quot;100;font-weight:200;font-size:22px}</style></defs><g id="Capa_1-2" data-name="Capa 1"><text style="fill:#fff;font-family:Bauhaus93,&quot;Bauhaus 93&quot;;font-size:107.76px" transform="matrix(.94 0 0 1 0 537)"><tspan x="0" y="0">Maikel Marshall </tspan></text><text class="cls-5" transform="rotate(64.59 127.527 616.737)scale(1.09 1)"><tspan x="0" y="0">phothog</tspan><tspan x="76.49" y="0" style="letter-spacing:0">r</tspan><tspan x="82.79" y="0">aphe</tspan><tspan x="129.82" y="0" style="letter-spacing:-.02em">r</tspan></text><text style="fill:#fff;font-size:50.65px;font-family:ArchivoRoman-Thin,Archivo;font-variation-settings:&quot;wght&quot;100,&quot;wdth&quot;100;font-weight:200" transform="rotate(64.59 55.27 737.412)scale(1.09 1)"><tspan x="0" y="0">.</tspan></text><text class="cls-5" transform="rotate(64.59 44.382 748.28)scale(1.09 1)"><tspan x="0" y="0">miami</tspan></text><path d="M.36 459.47V136.3c0-40.07 12.16-72.8 36.46-98.2Q73.27 0 131.41 0q68.97 0 106.08 63.39c15.11-22.77 31.31-39.03 48.61-48.77S324.74 0 350.14 0c40.29 0 71.16 12.7 92.62 38.1s32.19 61.96 32.19 109.69v311.68H341.61V167.83q0-21.675-3.45-28.74c-2.3-4.71-6.95-7.06-13.96-7.06-13.14 0-19.71 11.17-19.71 33.5v293.94H171.15V167.83c0-14.23-1.2-23.76-3.61-28.57-2.41-4.82-7.12-7.23-14.12-7.23-13.14 0-19.71 11.93-19.71 35.8v291.64zM685.36 109.37l-68.42 127.47 101.7 222.63H563.85l-87.48-228.6 63.55-121.5z" class="cls-2"/></g></svg>