<?xml version="1.0" encoding="UTF-8"?>
<svg id="Capa_2" data-name="Capa 2" xmlns="http://www.w3.org/2000/svg" viewBox="0 0 749.32 563.94">
  <defs>
    <style>
      .cls-1 {
        letter-spacing: -.02em;
      }

      .cls-2, .cls-3, .cls-4, .cls-5 {
        fill: #fff;
      }

      .cls-6 {
        letter-spacing: 0em;
      }

      .cls-3 {
        font-family: Bauhaus93, 'Bauhaus 93';
        font-size: 107.76px;
      }

      .cls-4 {
        font-size: 50.65px;
      }

      .cls-4, .cls-5 {
        font-family: ArchivoRoman-Thin, Archivo;
        font-variation-settings: 'wght' 100, 'wdth' 100;
        font-weight: 200;
      }

      .cls-5 {
        font-size: 22px;
      }
    </style>
  </defs>
  <g id="Capa_1-2" data-name="Capa 1">
    <text class="cls-3" transform="translate(0 537) scale(.94 1)"><tspan x="0" y="0">Maikel Marshall </tspan></text>
    <text class="cls-5" transform="translate(629.88 236.91) rotate(64.59) scale(1.09 1)"><tspan x="0" y="0">phothog</tspan><tspan class="cls-6" x="76.49" y="0">r</tspan><tspan x="82.79" y="0">aphe</tspan><tspan class="cls-1" x="129.82" y="0">r</tspan></text>
    <text class="cls-4" transform="translate(697.63 371.07) rotate(64.59) scale(1.09 1)"><tspan x="0" y="0">.</tspan></text>
    <text class="cls-5" transform="translate(701.23 387.11) rotate(64.59) scale(1.09 1)"><tspan x="0" y="0">miami</tspan></text>
    <g>
      <path class="cls-2" d="M.36,459.47V136.3C.36,96.23,12.52,63.5,36.82,38.1,61.12,12.7,92.65,0,131.41,0c45.98,0,81.34,21.13,106.08,63.39,15.11-22.77,31.31-39.03,48.61-48.77,17.3-9.74,38.64-14.62,64.04-14.62,40.29,0,71.16,12.7,92.62,38.1,21.46,25.4,32.19,61.96,32.19,109.69v311.68h-133.34V167.83c0-14.45-1.15-24.03-3.45-28.74-2.3-4.71-6.95-7.06-13.96-7.06-13.14,0-19.71,11.17-19.71,33.5v293.94h-133.34V167.83c0-14.23-1.2-23.76-3.61-28.57-2.41-4.82-7.12-7.23-14.12-7.23-13.14,0-19.71,11.93-19.71,35.8v291.64H.36Z"/>
      <polygon class="cls-2" points="685.36 109.37 616.94 236.84 718.64 459.47 563.85 459.47 476.37 230.87 539.92 109.37 685.36 109.37"/>
    </g>
  </g>
</svg>