<svg xmlns="http://www.w3.org/2000/svg" id="Capa_2" data-name="Capa 2" viewBox="0 0 955.82 722.8"><defs><style>.cls-1{fill:#ff5722}</style></defs><g id="Capa_1-2" data-name="Capa 1"><path d="M891.35 104.17H674.42l-49.45-86.33C618.66 6.85 606.88 0 594.19 0H428.88c-12.57 0-24.35 6.76-30.7 17.63l-50.32 86.54h-99.61V38.12H88.57v66.05H0V722.8h955.82V168.68c0-35.55-28.92-64.51-64.47-64.51M411.74 25.51c3.53-6.1 10.12-9.87 17.13-9.87h165.27c7.09 0 13.69 3.82 17.22 9.96l44.97 78.53-290.36.04 45.76-78.66ZM104.25 56.42c0-1.44 1.17-2.61 2.61-2.61h123.09c1.44 0 2.61 1.17 2.61 2.61v47.75h-128.3V56.42ZM15.64 196.14h130.84c16.95 0 30.7 13.74 30.7 30.7v373.32c0 16.95-13.74 30.7-30.7 30.7H15.64zm924.51 462.23c0 26.92-21.9 48.83-48.79 48.83l-826.88-.04c-26.92 0-48.83-21.9-48.83-48.83v-11.82h130.84c25.55 0 46.38-20.78 46.38-46.38V226.8c0-25.55-20.78-46.38-46.38-46.38l-130.84.08v-11.82c0-26.94 21.84-48.79 48.79-48.79h24.14l159.68-.04h643.11c26.92 0 48.79 21.9 48.79 48.79v489.73Z" class="cls-1"/><path d="M511.14 265.37c-81.68 0-148.1 66.46-148.1 148.1s66.46 148.1 148.1 148.1 148.1-66.46 148.1-148.1-66.46-148.1-148.1-148.1m0 280.57c-73.01 0-132.47-59.41-132.47-132.47S438.08 281 511.14 281s132.47 59.41 132.47 132.47c-.04 73.06-59.45 132.47-132.47 132.47" class="cls-1"/><path d="M511.14 174.32c-131.88 0-239.17 107.29-239.17 239.17-.04 131.92 107.29 239.2 239.17 239.2S750.31 545.4 750.31 413.52s-107.29-239.2-239.17-239.2m0 462.68c-123.25 0-223.52-100.27-223.52-223.52s100.27-223.52 223.52-223.52 223.52 100.27 223.52 223.52C734.62 536.73 634.35 637 511.14 637M864.51 169.79h-79.2c-15.06 0-27.3 12.24-27.3 27.3v24.23c0 15.06 12.24 27.3 27.3 27.3h79.2c15.06 0 27.3-12.24 27.3-27.3v-24.23c0-15.06-12.24-27.3-27.3-27.3m11.65 51.57c0 6.43-5.23 11.62-11.66 11.62h-79.2c-6.43 0-11.62-5.23-11.62-11.62v-24.23c0-6.43 5.23-11.62 11.62-11.62h79.2c6.43 0 11.66 5.23 11.66 11.62z" class="cls-1"/></g></svg>