<svg xmlns="http://www.w3.org/2000/svg" data-name="Capa 2" viewBox="0 0 520.47 664.2"><path d="M0 260.23A259.4 259.4 0 0 1 76.22 76.22C123.31 29.12 188.37 0 260.24 0s136.93 29.12 184.02 76.22a259.4 259.4 0 0 1 76.22 184.02c0 58.99-25.98 123.08-63.37 184.28-50.24 82.18-121.46 159.63-177.28 211.91-5.58 5.19-12.62 7.78-19.59 7.78s-14.04-2.59-19.59-7.78q-.33-.3-.62-.62c-55.72-52.25-126.58-129.4-176.62-211.26C25.98 383.31 0 319.22 0 260.23M260.24 115.2a144.6 144.6 0 0 0-102.55 42.49c-26.24 26.24-42.49 62.5-42.49 102.55s16.25 76.31 42.49 102.55 62.5 42.49 102.55 42.49 76.31-16.25 102.55-42.49 42.49-62.5 42.49-102.55-16.25-76.31-42.49-102.55a144.6 144.6 0 0 0-102.55-42.49m84.93 60.09c-21.73-21.73-51.76-35.19-84.94-35.19s-63.21 13.46-84.94 35.19-35.19 51.76-35.19 84.94 13.46 63.21 35.19 84.94 51.76 35.19 84.94 35.19 63.21-13.46 84.94-35.19 35.19-51.76 35.19-84.94-13.46-63.21-35.19-84.94M93.83 93.82a234.6 234.6 0 0 0-68.92 166.41c0 53.97 24.45 113.7 59.67 171.34 48.81 79.82 117.96 155.13 172.38 206.14l.68.58a3.95 3.95 0 0 0 5.19 0c54.52-51.05 124.02-126.61 173.03-206.75 35.22-57.63 59.67-117.37 59.67-171.34a234.6 234.6 0 0 0-68.92-166.41A234.6 234.6 0 0 0 260.2 24.87 234.8 234.8 0 0 0 93.82 93.82Z" data-name="Capa 1" style="fill:#ff5722;fill-rule:evenodd"/></svg>