<?xml version="1.0" encoding="UTF-8"?>
<svg id="Capa_2" data-name="Capa 2" xmlns="http://www.w3.org/2000/svg" viewBox="0 0 634.84 459.71">
  <defs>
    <style>
      .cls-1 {
        fill: #ff5722;
      }
    </style>
  </defs>
  <g id="Capa_1-2" data-name="Capa 1">
    <path class="cls-1" d="M577.7,0H57.14C25.61,0,0,25.61,0,57.14v345.44c0,31.52,25.61,57.14,57.14,57.14h520.57c31.52,0,57.14-25.61,57.14-57.14V57.14C634.84,25.61,609.23,0,577.7,0ZM390.86,229.85l217.05-190.46c3.06,5.25,4.93,11.27,4.93,17.73v345.44c0,6.46-1.86,12.48-4.93,17.73l-217.05-190.45ZM577.7,21.88c4.93,0,9.52.99,13.79,2.85l-252.4,221.43c-12.37,10.84-30.98,10.84-43.34,0L43.34,24.73c4.27-1.86,8.87-2.85,13.79-2.85h520.57ZM26.81,420.3c-3.06-5.25-4.93-11.27-4.93-17.73V57.13c0-6.46,1.86-12.48,4.93-17.73l217.05,190.46L26.81,420.3ZM57.13,437.82c-4.93,0-9.63-.99-13.79-2.85l217.16-190.56,20.8,18.28c10.29,8.98,23.2,13.46,36.12,13.46s25.83-4.49,36.12-13.46l20.8-18.28,217.16,190.56c-4.27,1.86-8.87,2.85-13.79,2.85H57.13Z"/>
  </g>
</svg>