<?xml version="1.0" encoding="UTF-8"?>
<svg id="Capa_2" data-name="Capa 2" xmlns="http://www.w3.org/2000/svg" viewBox="0 0 711.91 713.82">
  <defs>
    <style>
      .cls-1 {
        fill: #fff;
      }
    </style>
  </defs>
  <g id="Capa_1-2" data-name="Capa 1">
    <g>
      <path class="cls-1" d="M485.44,366.94c-17.21-17.21-44.9-17.21-62.11,0l-25.79,26.76,13.36,13.36-13.36-13.36c-51.59-22.92-78.35-69.77-87.91-88.88l25.79-25.79c17.21-17.21,17.21-44.9,0-62.11l-47.78-47.78c-8.59-8.59-19.11-12.43-30.57-12.43s-22.92,4.78-30.57,12.43l-19.11,19.11c-15.3,16.24-25.79,36.32-26.76,58.31-2.87,37.25,1.9,110.87,66.89,181.56l13.36,14.33c65.92,68.79,135.68,82.2,179.66,82.2,5.75,0,11.46,0,16.24-.97,21.99-1.9,43-11.46,59.24-26.76l19.11-19.11c8.59-8.59,12.43-19.11,12.43-30.57s-4.78-22.92-12.43-30.57l-49.68-49.72ZM506.46,450.06l-19.11,19.11c-9.56,9.56-21.99,15.3-34.42,16.24-34.42,2.87-102.24-2.87-165.33-69.77l-13.36-13.36c-54.46-60.21-59.24-121.35-56.36-151.92.97-12.43,6.68-24.86,16.24-34.42l19.11-19.11c.97-.97,2.87-1.9,3.81-1.9s2.87,0,3.81,1.9l47.78,47.78c1.9,1.9,1.9,5.75,0,7.65l-25.79,25.79c-11.46,11.46-14.33,29.64-7.65,43.97,14.33,28.67,45.88,80.25,107.02,107.02,14.33,6.68,31.54,2.87,43-7.65l26.76-26.76c1.9-1.9,5.75-1.9,7.65,0l47.78,47.78c.97.97,1.9,2.87,1.9,3.81.04.97-.9,1.94-2.84,3.84h0Z"/>
      <path class="cls-1" d="M359.32.01C264.73.01,176.78,36.33,109.89,103.22-4.78,217.89-26.77,392.77,55.43,532.26L0,713.82l172-62.11c138.56,86.97,321.09,66.89,436.69-49.68,66.89-66.89,103.21-154.79,103.21-249.43s-36.32-182.54-103.21-249.43C541.84,36.28,453.9,0,359.31,0h0ZM581.98,575.26c-106.09,106.09-272.34,122.32-396.57,39.19l-7.65-5.75-118.47,43,38.22-125.2-4.78-7.65C14.38,393.66,32.52,234.08,136.7,129.94c59.24-59.24,138.56-91.75,222.66-91.75s163.42,32.47,222.66,91.75c59.24,59.24,91.75,138.56,91.75,222.66-.07,84.1-32.55,163.42-91.79,222.66h0Z"/>
    </g>
  </g>
</svg>