<?xml version="1.0" encoding="UTF-8"?>
<svg id="Capa_2" data-name="Capa 2" xmlns="http://www.w3.org/2000/svg" viewBox="0 0 752.56 752.56">
  <defs>
    <style>
      .cls-1 {
        fill: #ff5722;
      }
    </style>
  </defs>
  <g id="Capa_1-2" data-name="Capa 1">
    <path class="cls-1" d="M639.67,0H112.88C50.64,0,0,50.64,0,112.88v526.79c0,62.24,50.64,112.88,112.88,112.88h526.79c62.24,0,112.88-50.64,112.88-112.88V112.88C752.56,50.64,701.91,0,639.67,0ZM727.48,639.68c0,48.41-39.38,87.8-87.8,87.8H112.88c-48.41,0-87.8-39.38-87.8-87.8V112.89c0-48.41,39.38-87.8,87.8-87.8h526.79c48.41,0,87.8,39.38,87.8,87.8v526.79ZM376.28,150.51c-124.49,0-225.77,101.28-225.77,225.77s101.28,225.77,225.77,225.77,225.77-101.28,225.77-225.77-101.28-225.77-225.77-225.77ZM376.28,576.97c-110.66,0-200.68-90.03-200.68-200.68s90.03-200.68,200.68-200.68,200.68,90.03,200.68,200.68-90.03,200.68-200.68,200.68ZM639.67,137.97c0,13.83-11.26,25.09-25.09,25.09s-25.09-11.26-25.09-25.09,11.26-25.09,25.09-25.09,25.09,11.26,25.09,25.09Z"/>
  </g>
</svg>