<svg xmlns="http://www.w3.org/2000/svg" data-name="Capa 2" viewBox="0 0 752.56 752.56"><path d="M639.67 0H112.88C50.64 0 0 50.64 0 112.88v526.79c0 62.24 50.64 112.88 112.88 112.88h526.79c62.24 0 112.88-50.64 112.88-112.88V112.88C752.56 50.64 701.91 0 639.67 0m87.81 639.68c0 48.41-39.38 87.8-87.8 87.8h-526.8c-48.41 0-87.8-39.38-87.8-87.8V112.89c0-48.41 39.38-87.8 87.8-87.8h526.79c48.41 0 87.8 39.38 87.8 87.8v526.79Zm-351.2-489.17c-124.49 0-225.77 101.28-225.77 225.77s101.28 225.77 225.77 225.77 225.77-101.28 225.77-225.77-101.28-225.77-225.77-225.77m0 426.46c-110.66 0-200.68-90.03-200.68-200.68s90.03-200.68 200.68-200.68 200.68 90.03 200.68 200.68-90.03 200.68-200.68 200.68m263.39-439c0 13.83-11.26 25.09-25.09 25.09s-25.09-11.26-25.09-25.09 11.26-25.09 25.09-25.09 25.09 11.26 25.09 25.09" data-name="Capa 1" style="fill:#fff"/></svg>